<?xml version="1.0" standalone="no"?>
<!DOCTYPE svg PUBLIC "-//W3C//DTD SVG 20010904//EN"
 "http://www.w3.org/TR/2001/REC-SVG-20010904/DTD/svg10.dtd">
<svg version="1.0" xmlns="http://www.w3.org/2000/svg"
 width="305.000000pt" height="228.000000pt" viewBox="0 0 305.000000 228.000000"
 preserveAspectRatio="xMidYMid meet">

<g transform="translate(0.000000,228.000000) scale(0.100000,-0.100000)"
fill="#000000" stroke="none">
<path d="M1509 1893 c-20 -31 -32 -39 -69 -45 -132 -24 -237 -66 -334 -135
-44 -32 -53 -34 -94 -28 l-45 7 7 -45 c6 -42 4 -49 -38 -109 -24 -35 -55 -89
-68 -121 -31 -76 -53 -77 -44 -2 5 45 3 55 -9 55 -27 0 -380 -102 -391 -114
-8 -8 -2 -67 23 -221 18 -116 35 -216 38 -223 3 -9 48 -12 179 -12 l174 0 36
-76 c20 -42 52 -99 72 -125 32 -44 35 -52 29 -94 -8 -49 -6 -50 44 -35 30 8
38 5 103 -40 82 -58 194 -103 295 -120 66 -11 74 -14 92 -46 11 -19 24 -34 28
-34 5 0 17 16 27 35 16 29 25 35 65 40 118 16 264 76 352 146 33 26 38 27 78
17 23 -6 43 -9 46 -7 2 2 -1 22 -7 44 -10 39 -8 43 44 121 30 45 60 100 68
123 7 22 20 41 27 41 12 0 13 -11 8 -55 -5 -38 -4 -55 4 -55 20 0 394 109 402
117 5 5 -8 109 -29 233 l-37 225 -177 3 -177 2 -35 74 c-20 41 -52 96 -72 122
-35 45 -36 50 -26 92 l10 44 -47 -7 c-43 -6 -51 -3 -122 44 -88 59 -181 96
-280 113 -66 10 -73 14 -96 50 -14 21 -27 38 -28 38 -1 0 -13 -17 -26 -37z
m219 -114 c183 -56 334 -182 416 -346 29 -57 32 -73 14 -73 -7 0 -26 26 -43
57 -16 31 -36 59 -43 61 -8 2 0 -19 17 -50 35 -62 37 -68 17 -68 -8 0 -25 21
-37 46 -13 25 -27 48 -32 51 -19 12 -16 -7 9 -50 25 -45 25 -47 6 -47 -13 0
-29 14 -43 37 -23 37 -40 32 -20 -6 15 -27 14 -31 -7 -31 -10 0 -26 15 -37 36
-47 88 -190 184 -314 209 -36 8 -67 18 -69 22 -12 35 -23 38 -45 12 -16 -18
-40 -29 -87 -38 -116 -23 -238 -103 -297 -196 -16 -25 -36 -45 -45 -45 -22 0
-23 10 -3 36 17 22 19 34 6 34 -5 0 -18 -16 -30 -35 -20 -34 -51 -48 -51 -22
0 6 9 26 20 42 22 32 25 45 12 45 -5 0 -21 -22 -36 -50 -15 -27 -34 -50 -41
-50 -17 0 -12 17 23 79 18 30 21 42 11 39 -8 -2 -27 -30 -44 -61 -27 -51 -55
-75 -55 -46 0 36 82 161 150 229 110 110 239 178 380 200 79 13 219 3 298 -21z
m-958 -394 c0 -25 -1 -25 -82 -25 -45 0 -79 2 -76 5 6 6 125 42 146 44 6 0 12
-10 12 -24z m1774 -84 c7 -10 56 -311 56 -341 l0 -20 -1037 2 -1038 3 -27 160
c-15 88 -27 170 -28 183 l0 22 1034 0 c591 0 1037 -4 1040 -9z m-1592 -461
c28 -55 58 -93 58 -74 0 6 -14 36 -30 66 -17 31 -27 59 -21 62 10 7 20 -5 51
-61 13 -24 27 -43 32 -43 13 0 10 12 -12 48 -11 18 -20 39 -20 47 0 29 29 15
51 -25 13 -22 26 -40 31 -40 12 0 10 13 -8 38 -14 21 -12 42 4 42 4 0 27 -27
51 -60 70 -97 205 -180 312 -195 38 -5 54 -13 66 -32 l17 -25 20 25 c14 17 36
27 66 32 117 19 237 92 305 186 45 62 56 72 69 59 5 -5 2 -19 -8 -34 -19 -29
-20 -36 -6 -36 6 0 18 16 27 35 9 19 23 37 31 40 29 11 32 -8 7 -50 -28 -48
-30 -55 -15 -55 5 0 21 22 35 49 13 27 29 52 34 55 22 14 18 -13 -10 -67 -16
-32 -29 -60 -29 -63 0 -18 35 27 61 78 28 56 49 74 49 43 0 -51 -111 -209
-197 -279 -124 -103 -271 -156 -434 -156 -259 0 -489 136 -609 361 -16 31 -30
64 -30 74 0 30 23 10 52 -45z m1508 51 c0 -5 -29 -16 -63 -25 -35 -8 -71 -18
-80 -22 -13 -5 -17 0 -17 18 0 14 3 28 7 31 10 10 153 8 153 -2z"/>
<path d="M955 1188 c-9 -28 -22 -118 -17 -123 10 -9 152 -5 152 4 0 6 -24 11
-52 13 l-53 3 4 35 c7 66 6 74 -12 78 -9 2 -19 -2 -22 -10z"/>
<path d="M1131 1177 c-5 -13 -13 -45 -16 -71 -7 -46 -7 -48 16 -44 20 3 25 11
32 56 8 51 9 52 43 52 l34 0 -6 -55 c-6 -51 -5 -55 13 -55 21 0 33 32 33 89 0
40 -18 51 -82 51 -52 0 -59 -3 -67 -23z"/>
<path d="M1395 1175 c-14 -13 -25 -33 -25 -44 0 -17 8 -20 50 -23 28 -2 50 -7
50 -13 0 -5 -22 -11 -50 -13 -69 -4 -63 -22 8 -22 45 0 63 5 80 20 38 36 29
50 -34 50 -47 0 -55 3 -52 18 4 21 53 29 73 12 20 -16 45 -5 45 20 0 18 -6 20
-60 20 -51 0 -65 -4 -85 -25z"/>
<path d="M1562 1183 c-6 -10 -13 -42 -17 -71 l-7 -53 102 3 c97 3 104 5 121
28 10 14 19 43 21 65 3 34 0 40 -17 40 -16 0 -22 -10 -30 -47 -19 -89 -63 -93
-46 -4 7 37 6 49 -5 53 -22 8 -33 -5 -39 -51 -8 -54 -19 -71 -39 -63 -13 5
-15 16 -10 62 6 46 4 55 -9 55 -9 0 -20 -8 -25 -17z"/>
<path d="M1823 1182 c-28 -21 -48 -111 -27 -119 17 -6 34 4 34 22 0 16 43 31
59 20 6 -3 11 -15 11 -26 0 -12 7 -19 19 -19 26 0 28 5 37 78 l7 62 -59 0
c-40 0 -66 -6 -81 -18z m87 -32 c0 -16 -7 -20 -35 -20 -22 0 -35 5 -35 13 0
20 10 27 42 27 21 0 28 -5 28 -20z"/>
<path d="M1997 1178 c-18 -16 -28 -38 -33 -71 -6 -47 -6 -49 17 -45 19 2 25
11 31 46 9 56 14 62 49 62 24 0 30 -4 27 -17 -2 -10 -13 -19 -26 -21 -32 -5
-27 -22 6 -22 36 0 74 35 70 63 -3 19 -10 22 -59 25 -48 2 -61 -1 -82 -20z"/>
</g>
</svg>
